{"accessors":[{"bufferView":0,"byteOffset":0,"componentType":5126,"count":78,"max":[0.5334,0.07619999999999999,0.5315781685697577],"min":[-0.5334,0.0,-0.5315781685697576],"type":"VEC3"},{"bufferView":0,"byteOffset":936,"componentType":5126,"count":76,"max":[0.4953,0.07619999999999999,0.4948537179611787],"min":[-0.4935156760751134,0.0,-0.4948537179611787],"type":"VEC3"},{"bufferView":0,"byteOffset":1848,"componentType":5126,"count":75,"max":[0.5334,0.0,0.5315781685697577],"min":[-0.5334,0.0,-0.5315781685697576],"type":"VEC3"},{"bufferView":0,"byteOffset":2748,"componentType":5126,"count":75,"max":[0.5334,0.07619999999999999,0.5315781685697577],"min":[-0.5334,0.07619999999999999,-0.5315781685697576],"type":"VEC3"},{"bufferView":0,"byteOffset":3648,"componentType":5126,"count":80,"max":[0.635,0.05080000000000001,0.6344850138389467],"min":[-0.6329408906652234,0.0,-0.6344850138389467],"type":"VEC3"},{"bufferView":0,"byteOffset":4608,"componentType":5126,"count":39,"max":[0.635,0.0,0.6344850138389467],"min":[-0.6329408906652234,0.0,-0.6344850138389467],"type":"VEC3"},{"bufferView":0,"byteOffset":5076,"componentType":5126,"count":39,"max":[0.635,0.0508,0.6344850138389467],"min":[-0.6329408906652234,0.0508,-0.6344850138389467],"type":"VEC3"},{"bufferView":0,"byteOffset":5544,"componentType":5126,"count":37,"max":[0.635,0.0,0.6344278435399727],"min":[-0.6327124052245043,0.0,-0.6344278435399727],"type":"VEC3"},{"bufferView":0,"byteOffset":5988,"componentType":5126,"count":76,"max":[0.635,0.2794,0.6344278435399727],"min":[-0.6327124052245043,0.0,-0.6344278435399727],"type":"VEC3"},{"bufferView":0,"byteOffset":6900,"componentType":5126,"count":73,"max":[0.635,0.2794,0.6344278435399727],"min":[-0.6327124052245043,0.2794,-0.6344278435399727],"type":"VEC3"},{"bufferView":0,"byteOffset":7776,"componentType":5126,"count":74,"max":[0.5842,0.2794,0.5842],"min":[-0.5842,0.019049999999999997,-0.5842],"type":"VEC3"},{"bufferView":0,"byteOffset":8664,"componentType":5126,"count":36,"max":[0.5842,0.019049999999999997,0.5842],"min":[-0.5842,0.019049999999999997,-0.5842],"type":"VEC3"},{"bufferView":1,"byteOffset":0,"componentType":5126,"count":78,"type":"VEC3"},{"bufferView":1,"byteOffset":936,"componentType":5126,"count":76,"type":"VEC3"},{"bufferView":1,"byteOffset":1848,"componentType":5126,"count":75,"type":"VEC3"},{"bufferView":1,"byteOffset":2748,"componentType":5126,"count":75,"type":"VEC3"},{"bufferView":1,"byteOffset":3648,"componentType":5126,"count":80,"type":"VEC3"},{"bufferView":1,"byteOffset":4608,"componentType":5126,"count":39,"type":"VEC3"},{"bufferView":1,"byteOffset":5076,"componentType":5126,"count":39,"type":"VEC3"},{"bufferView":1,"byteOffset":5544,"componentType":5126,"count":37,"type":"VEC3"},{"bufferView":1,"byteOffset":5988,"componentType":5126,"count":76,"type":"VEC3"},{"bufferView":1,"byteOffset":6900,"componentType":5126,"count":73,"type":"VEC3"},{"bufferView":1,"byteOffset":7776,"componentType":5126,"count":74,"type":"VEC3"},{"bufferView":1,"byteOffset":8664,"componentType":5126,"count":36,"type":"VEC3"},{"bufferView":2,"byteOffset":0,"componentType":5123,"count":228,"type":"SCALAR"},{"bufferView":2,"byteOffset":456,"componentType":5123,"count":222,"type":"SCALAR"},{"bufferView":2,"byteOffset":900,"componentType":5123,"count":225,"type":"SCALAR"},{"bufferView":2,"byteOffset":1352,"componentType":5123,"count":225,"type":"SCALAR"},{"bufferView":2,"byteOffset":1804,"componentType":5123,"count":234,"type":"SCALAR"},{"bufferView":2,"byteOffset":2272,"componentType":5123,"count":111,"type":"SCALAR"},{"bufferView":2,"byteOffset":2496,"componentType":5123,"count":111,"type":"SCALAR"},{"bufferView":2,"byteOffset":2720,"componentType":5123,"count":105,"type":"SCALAR"},{"bufferView":2,"byteOffset":2932,"componentType":5123,"count":222,"type":"SCALAR"},{"bufferView":2,"byteOffset":3376,"componentType":5123,"count":219,"type":"SCALAR"},{"bufferView":2,"byteOffset":3816,"componentType":5123,"count":216,"type":"SCALAR"},{"bufferView":2,"byteOffset":4248,"componentType":5123,"count":102,"type":"SCALAR"}],"asset":{"generator":"Open CASCADE Technology 7.8 [dev.opencascade.org]","version":"2.0"},"bufferViews":[{"buffer":0,"byteLength":9096,"byteOffset":0,"byteStride":12,"target":34962},{"buffer":0,"byteLength":9096,"byteOffset":9096,"byteStride":12,"target":34962},{"buffer":0,"byteLength":4452,"byteOffset":18192,"target":34963}],"buffers":[{"byteLength":22644,"uri":"cyltable.bin"}],"materials":[{"name":"mat_0","pbrMetallicRoughness":{"baseColorFactor":[0.039546288549900055,0.03820427507162094,0.03688954934477806,1.0]},"doubleSided":true}],"meshes":[{"name":"Foot ","primitives":[{"attributes":{"NORMAL":12,"POSITION":0},"indices":24,"material":0,"mode":4},{"attributes":{"NORMAL":13,"POSITION":1},"indices":25,"material":0,"mode":4},{"attributes":{"NORMAL":14,"POSITION":2},"indices":26,"material":0,"mode":4},{"attributes":{"NORMAL":15,"POSITION":3},"indices":27,"material":0,"mode":4}]},{"name":"Top","primitives":[{"attributes":{"NORMAL":16,"POSITION":4},"indices":28,"material":0,"mode":4},{"attributes":{"NORMAL":17,"POSITION":5},"indices":29,"material":0,"mode":4},{"attributes":{"NORMAL":18,"POSITION":6},"indices":30,"material":0,"mode":4}]},{"name":"Box","primitives":[{"attributes":{"NORMAL":19,"POSITION":7},"indices":31,"material":0,"mode":4},{"attributes":{"NORMAL":20,"POSITION":8},"indices":32,"material":0,"mode":4},{"attributes":{"NORMAL":21,"POSITION":9},"indices":33,"material":0,"mode":4},{"attributes":{"NORMAL":22,"POSITION":10},"indices":34,"material":0,"mode":4},{"attributes":{"NORMAL":23,"POSITION":11},"indices":35,"material":0,"mode":4}]}],"nodes":[{"children":[1,2,3],"name":"Unnamed"},{"mesh":0,"name":"Foot "},{"translation":[0.0,0.3606799999999999,0.0],"mesh":1,"name":"Top"},{"translation":[0.0,0.07619999999999999,0.0],"mesh":2,"name":"Box"}],"scene":0,"scenes":[{"nodes":[0]}]}